<?xml version="1.0" encoding="UTF-8"?><svg id="_圖層_2" xmlns="http://www.w3.org/2000/svg" viewBox="0 0 633.72 230.76"><defs><style>.cls-1{fill:#231815;stroke:#41250f;stroke-miterlimit:10;stroke-width:1.02px;}.cls-2{fill:#41250f;}</style></defs><g id="_字_x2B_按鈕"><path class="cls-2" d="M3.51,85.26h135.64v15.54h-59.47v62.14h62.14v15.87h-62.14v51.95h-17.21v-51.95H0v-15.87h62.48v-62.14H3.51v-15.54ZM15.03,107.65h16.54c2.89,16.93,6.12,33.3,9.69,49.11h-17.37c-3.34-15.14-6.29-31.51-8.85-49.11ZM112.92,107.31h18.21c-3.34,18.37-7.07,34.86-11.19,49.45h-18.54c5.01-16.71,8.85-33.19,11.53-49.45Z"/><path class="cls-2" d="M197.58,83.92c5.79.89,10.41,5.24,13.86,13.03,4.45,16.26,7.96,31.13,10.52,44.6h-15.03c-.56-3.23-1.23-6.4-2-9.52h-7.18v20.38h22.38v14.2h-22.38v42.1c6.46-.45,13.03-.89,19.71-1.34v14.7c-14.59.89-32.74,1.5-54.46,1.84v-14.37c6.79,0,13.64-.11,20.55-.33v-42.6h-20.21v-14.2h20.21v-20.38h-6.85c-.78,3.57-1.5,6.63-2.17,9.19h-16.54c4.34-15.26,9.52-34.35,15.54-57.3h24.05ZM163.51,172.46h12.36c.67,9.47,1.28,19.6,1.84,30.4h-11.69c-.78-10.24-1.62-20.38-2.51-30.4ZM179.71,117.33h22.22c-1-4.34-2.06-8.69-3.17-13.03-.78-3.01-2.79-5.12-6.01-6.35h-9.02c-1.34,7.24-2.67,13.7-4.01,19.38ZM206.27,172.46h11.86c-.45,11.02-1.5,20.82-3.17,29.4h-11.36c1.22-10.13,2.11-19.93,2.67-29.4ZM222.97,90.27h32.41v-10.52h16.2v10.52h33.91v14.37h-33.91v7.52h5.51c15.14,2.23,23.27,10.86,24.39,25.89.78,8.46,1.17,16.98,1.17,25.56-.11,12.03-.78,22.11-2,30.23h4.18v14.7h-8.52c1.34,7.02,2.89,13.92,4.68,20.71l-16.37-.17c-1.34-6.57-2.62-13.42-3.84-20.55h-35.92c-1.56,7.68-3.12,14.59-4.68,20.71h-16.37c1.89-7.02,3.4-13.92,4.51-20.71h-7.85v-14.7h6.85l-.17-81.68h28.23v-7.52h-32.41v-14.37ZM284.61,134.21c-2.12-3.9-5.96-6.35-11.53-7.35h-31.07v7.35h42.6ZM242.02,147.07v7.35h45.27c-.11-2.56-.28-5.01-.5-7.35h-44.77ZM242.02,167.11v7.35h45.27c.11-2.45.17-4.9.17-7.35h-45.44ZM286.12,186.82h-44.1v7.02h43.26c.33-2.22.61-4.56.84-7.02Z"/><path class="cls-2" d="M325.51,120.01c11.58,3.67,22.16,8.24,31.74,13.7v18.37c-10.69-6.68-21.27-11.64-31.74-14.87v-17.21ZM326.01,83.42c11.69,3.57,22.33,8.13,31.91,13.7v18.04c-10.69-6.46-21.33-11.41-31.91-14.87v-16.87ZM379.8,98.79c0,8.69-.11,17.43-.33,26.23-1.34,35.86-4.18,69.6-8.52,101.23l-16.37.17c6.01-33.07,9.02-67.93,9.02-104.57.56-10.8.84-23.33.84-37.58l102.57.17v14.53l-37.08-.17c-.78,2.79-1.78,5.4-3.01,7.85h9.85c8.58,0,15.14,3.12,19.71,9.36,4.9,5.57,7.57,12.86,8.02,21.88-.11,9.47-2.45,16.82-7.02,22.05-4.9,6.35-11.52,9.75-19.88,10.19h-6.51c.11,10.02.17,20.77.17,32.24,0,7.35-1.34,13.31-4.01,17.87-3.57,4.79-7.46,7.24-11.69,7.35h-18.04v-14.2h12.36c4.01,0,6.01-2.23,6.01-6.68,0-11.69-.06-23.89-.17-36.58h-27.73v-63.48h22.55c1.11-2.56,2.06-5.18,2.84-7.85h-33.58ZM391.32,175.8h13.7c-.45,23.5-8.97,39.36-25.56,47.61v-17.54c7.91-6.23,11.86-16.26,11.86-30.07ZM403.02,131.53h45.27c-1.56-6.79-5.68-10.52-12.36-11.19h-32.91v11.19ZM403.02,156.09h32.74c6.79-.67,10.91-4.34,12.36-11.02h-45.1v11.02ZM441.27,175.46h13.7c.44,10.92,4.4,20.05,11.86,27.4v22.38c-13.92-9.91-22.44-26.5-25.56-49.78ZM341.96,160.29s-28.36,17.99-15.95,57.6c0,0,32.41-17.31,15.95-57.6Z"/><path class="cls-2" d="M490.35,210.21h56.96v15.37h-56.96v-15.37ZM564.85,82.09v14.53c-7.13.89-14.2,1.62-21.21,2.17.11,12.25.61,23.44,1.5,33.58h22.89v15.37h-21.21c3.9,26.62,10.91,45.71,21.05,57.3v20.88c-18.26-14.7-30.07-40.76-35.41-78.18h-26.06c0,12.14.34,23.72,1,34.74,0,3.9,1.56,5.85,4.68,5.85,10.91-.11,19.04-.78,24.39-2v15.7c-6.35.56-15.53.95-27.56,1.17-9.91-.67-15.43-6.51-16.54-17.54-.78-12.92-1.17-28.23-1.17-45.94s.56-35.91,1.67-53.62c18.6,0,42.6-1.34,72-4.01ZM530.61,132.37c-1-10.24-1.56-21.1-1.67-32.57-7.35.45-14.53.67-21.55.67-.45,11.02-.73,21.66-.84,31.91h24.06ZM613.96,84.09c9.58,1.23,14.37,5.68,14.37,13.36,0,7.13-5.01,19.54-15.03,37.25,10.13,24.17,15.2,45.55,15.2,64.14,0,11.03-5.12,16.81-15.37,17.37h-17.37v-15.2h11.69c3.56,0,5.35-1.95,5.35-5.85,0-9.91-4.84-30.29-14.53-61.14,4.68-11.02,9.36-22.16,14.03-33.41,0-1.67-1.17-2.5-3.51-2.5h-18.54v131.8h-15.53V84.09h39.25Z"/><path class="cls-2" d="M26.31,23.37h-9.96v-4.79h12.68c1.28-2.44,2.43-4.89,3.29-7.16l5.56,1.11c-.8,1.97-1.76,4.02-2.8,6.05h22.2v4.79h-8.48c-1.51,3.84-3.5,7.02-5.94,9.67,5.47,2.32,10.53,4.78,13.98,6.98l-4.06,4.31c-3.34-2.27-8.51-4.96-14.17-7.52-5.05,3.67-11.42,5.94-19.02,7.47-.53-1.26-2.03-3.53-2.95-4.69,6.59-.99,12.15-2.57,16.57-5.12-3.92-1.63-7.89-3.12-11.44-4.37,1.45-1.89,3.02-4.21,4.54-6.73ZM37.15.05c.83,1.67,1.9,3.79,2.56,5.37h16.6v10.31h-5.32v-5.61h-28.64v5.61h-5.08V5.42h16.51c-.56-1.36-1.24-2.87-1.85-4.11L37.15.05ZM32.45,23.37c-.96,1.65-1.92,3.2-2.84,4.6,2.67.91,5.47,1.94,8.26,3.03,2.19-2.09,3.92-4.6,5.15-7.63h-10.57Z"/><path class="cls-2" d="M88.34,1.84c-1.25,3.19-2.78,6.42-4.5,9.5v32.84h-4.74v-25.43c-1.29,1.75-2.62,3.36-3.97,4.77-.48-1.21-1.84-3.97-2.71-5.18,4.45-4.35,8.71-11.13,11.23-18l4.69,1.5ZM113.84,2.32v15.97h-9.97v4.69h12.34v4.6h-9.86c2.81,4.39,7.08,8.54,11.22,10.89-1.16.97-2.76,2.81-3.53,4.06-3.65-2.55-7.31-6.67-10.16-11.16v12.95h-5.03v-12.77c-2.99,4.45-6.82,8.39-10.79,10.88-.77-1.26-2.32-3.1-3.44-4.06,4.39-2.26,8.75-6.35,11.7-10.79h-10.1v-4.6h12.63v-4.69h-9.44V2.32h24.43ZM94.1,13.79h14.76v-6.97h-14.76v6.97Z"/><path class="cls-2" d="M131.93,18.82c.92-.24,2.18-1.5,3.19-3.05.72-1.12,2.64-4.53,4.32-8.42h-7.17V2.9h8.98l1.57-.68,3.05,2.08c-1.91,4.33-4.06,8.57-6.18,12.1h2.26l.87-.1,2.81.68c-.64,6.85-1.9,12.47-3.73,16.96,4.36,3.95,10.36,4.83,17.52,4.86,2.42,0,12.24,0,15.24-.1-.73,1.06-1.55,3.24-1.84,4.6h-13.5c-8.1,0-14.58-1.04-19.43-5.25-1.53,2.61-3.33,4.69-5.39,6.26-.73-.97-2.52-2.66-3.58-3.34,2.3-1.61,4.21-3.78,5.74-6.56-1.67-2.41-3.07-5.45-4.19-9.26l3.68-1.31c.68,2.35,1.52,4.35,2.5,6.03.91-2.64,1.59-5.66,2.05-9.08h-4.47c-.98.51-2.36,1.34-2.36,1.94-.29-.92-1.31-2.9-1.94-3.92ZM155.83,3.87V.24h4.69v3.63h10.4v6.48h2.76v3.82h-2.76v6.58h-10.4v2.71h11.08v3.58h-11.08v2.76h12.63v3.92h-12.63v3.58h-4.69v-3.58h-10.55v-3.92h10.55v-2.76h-8.66v-3.58h8.66v-2.71h-8.37v-3.87h8.37v-2.71h-10.74v-3.82h10.74v-2.61h-8.08v-3.87h8.08ZM166.52,10.35v-2.61h-6v2.61h6ZM160.52,16.89h6v-2.71h-6v2.71Z"/><path class="cls-2" d="M198.21,0c1.31,1.98,2.76,4.55,3.48,6.29l-3.32,1.84h9.27v4.02h-18.1v-4.02h7.97c-.72-1.78-2.06-4.34-3.18-6.19l3.87-1.94ZM226.42,1.79v10.55c0,1.35.05,1.89.63,1.89h2.18c.58,0,1.6-.15,2.18-.34.1,1.31.19,3.1.34,4.26-.58.29-1.55.34-2.47.34h-2.66c-4.02,0-4.79-1.79-4.79-6.24v-5.76h-6.24v.63c0,4.5-1.26,9.73-7.02,12.97-.56-.9-1.98-2.55-2.9-3.39v1.79h-14.13v-3.87h14.13v1.6c4.77-2.68,5.37-6.13,5.37-9.3V1.79h15.39ZM226.56,20.85l.87-.19,3.1,1.31c-1.58,5.82-4.23,10.34-7.7,13.83,2.93,1.69,6.31,2.96,10.07,3.73-1.06,1.06-2.42,3.19-3.1,4.6-4.18-1.05-7.85-2.71-11.01-4.94-3.28,2.28-7.03,3.93-11.1,5.09-.44-1.11-1.23-2.71-1.98-3.86v1.2h-9.92v2.08h-4.26v-16.26h14.18v12.18c3.32-.8,6.42-2.05,9.16-3.74-2.61-2.62-4.75-5.74-6.45-9.31l2.88-1.02h-4.34v-4.69h19.6ZM205.76,20.95v3.87h-14.23v-3.87h14.23ZM195.79,37.5h5.61v-6h-5.61v6ZM212.92,25.55c1.41,2.81,3.39,5.3,5.86,7.4,2.25-2.05,4.11-4.52,5.46-7.4h-11.32Z"/><path class="cls-2" d="M299.87,12.24c1.58,0,2.91,0,4-.03-.22,1.05-.56,3.07-.77,4.52l-.46.03c-.12-2.67-.5-3.66-2.48-3.66h-2.82c-1.02,0-1.24.19-1.39.99l-1.43,7.28h2.67c2.11,0,2.79-.43,3.63-2.6h.5l-1.33,6.2h-.53c.12-2.45-.31-2.73-2.39-2.73h-2.76l-1.12,6.04c-.43,2.29-.37,3.22,1.52,3.22h1.77c2.48,0,3.07-.34,3.97-1.24.59-.62,1.08-1.43,1.7-2.57l.43.12c-.34,1.08-1.21,3.5-1.67,4.56h-14.91l.09-.5c2.57-.34,2.76-.5,3.38-3.47l2.39-12.24c.5-2.67.53-3.19-2.08-3.44l.09-.5h10.01Z"/><path class="cls-2" d="M324.38,29.66c-1.74,2.17-3.47,3.1-4.68,3.1-.99,0-1.36-.68-.84-2.94.5-2.26,1.02-4.46,1.55-6.73.34-1.55.22-2.11-.37-2.11-1.15,0-2.97,2.17-3.87,3.78-.74,1.27-.84,2.05-1.08,2.94-.34,1.46-.71,3.19-.93,4.4-.99.09-2.32.37-3.19.62l-.15-.19c.56-2.6,1.49-6.45,2.26-9.92.22-.99.25-1.36-.12-1.36-.43,0-1.21.62-1.77,1.21l-.28-.43c1.43-1.86,3.38-3.13,4.56-3.13s1.27.99.74,3.63l-.37,1.61c1.83-2.94,4.62-5.24,6.6-5.24,1.08,0,1.92.46,1.08,4.34-.47,2.01-.9,3.97-1.33,6.01-.22.87-.12,1.15.16,1.15.22,0,.87-.22,1.8-1.21l.25.46Z"/><path class="cls-2" d="M332.51,22.22c1.7-1.77,3.9-3.32,5.18-3.32.84,0,.93.99.59,3.01-.4,2.48-1.39,7-1.98,9.73-.65,2.82-1.8,5.79-4.21,7.59-1.8,1.36-2.7,1.64-3.38,1.64-.84,0-1.39-.56-1.39-1.18,0-.43.34-1.15.74-1.49.28-.22.5-.28.68-.12.74.62,1.64,1.15,2.11,1.15s.81-.25,1.18-2.08c.99-4.52,1.83-8.74,2.85-14.41.22-1.21.09-1.39-.16-1.39-.4,0-1.24.68-1.92,1.27l-.28-.4ZM339.17,14.1c0,1.05-.68,2.05-1.74,2.05-.84,0-1.43-.59-1.43-1.58,0-.9.62-2.01,1.83-2.01.9,0,1.33.74,1.33,1.55Z"/><path class="cls-2" d="M359.1,23.43c0,3.25-1.58,6.63-4.46,8.31-1.05.62-2.2,1.02-3.56,1.02-3.19,0-4.21-2.2-4.21-4.56,0-3.97,2.2-7.16,4.99-8.52.99-.46,2.08-.77,3.19-.77,2.73,0,4.06,1.89,4.06,4.52ZM350.33,28.26c0,2.6.87,3.69,1.89,3.69,2.76,0,3.44-6.38,3.44-8.55,0-2.6-.77-3.66-1.77-3.66-2.7,0-3.56,6.26-3.56,8.52Z"/><path class="cls-2" d="M366.88,22.19c1.05-1.67,2.88-3.29,4.06-3.29,1.24,0,1.64,1.55,1.89,4.12.22,1.95.37,5.33.43,7.44,1.05-1.58,3.66-5.7,3.62-7.65-.03-1.02-.65-1.89-.68-2.14-.12-.34.06-.65.31-.96.31-.37,1.05-.81,1.52-.81.74,0,1.15.65,1.21,1.74,0,.9-.31,2.29-1.24,3.81-2.91,4.71-6.35,9.73-10.85,15.37l-3.59.96-.16-.43c2.79-1.64,5.7-4.56,7-6.42.03-1.08-.28-6.63-.65-9.64-.28-2.14-.43-3.04-.99-3.04-.28,0-.87.37-1.61,1.27l-.28-.34Z"/><path class="cls-2" d="M410.61,12.24c1.58,0,2.91,0,4-.03-.22,1.05-.56,3.07-.77,4.52l-.46.03c-.12-2.67-.5-3.66-2.48-3.66h-2.82c-1.02,0-1.24.19-1.39.99l-1.42,7.28h2.67c2.11,0,2.79-.43,3.63-2.6h.5l-1.33,6.2h-.53c.12-2.45-.31-2.73-2.39-2.73h-2.76l-1.12,6.04c-.43,2.29-.37,3.22,1.52,3.22h1.77c2.48,0,3.07-.34,3.97-1.24.59-.62,1.08-1.43,1.7-2.57l.43.12c-.34,1.08-1.21,3.5-1.67,4.56h-14.91l.09-.5c2.57-.34,2.76-.5,3.38-3.47l2.39-12.24c.5-2.67.53-3.19-2.08-3.44l.09-.5h10.01Z"/><path class="cls-2" d="M427.66,29.47c-1.77,2.29-3.66,3.29-4.71,3.29-.99,0-1.33-.87-.9-3.04.99-5.14,2.23-11.09,3.16-15.96.28-1.3.09-1.33-1.18-1.64-.25-.06-.34-.06-.5-.09l.09-.4c1.55-.15,3.25-.5,4.21-.87.5-.19.87-.28,1.02-.28.25,0,.22.4.06,1.15-1.15,5.76-2.39,11.65-3.56,17.63-.19.87-.06,1.15.22,1.15.25,0,.9-.28,1.83-1.3l.25.37Z"/><path class="cls-2" d="M439.01,32.76c-1.61,0-3.44-.9-3.44-4.34,0-2.94,1.24-5.89,3.32-7.65,1.27-1.08,3.1-1.86,4.52-1.86,1.77,0,2.45,1.12,2.45,2.32,0,2.7-4.25,4.06-6.88,4.71-.06.56-.06.93-.06,1.12,0,1.98.56,3.66,2.29,3.66,1.15,0,2.42-.56,3.81-2.01l.25.4c-2.36,2.88-4.71,3.66-6.26,3.66ZM439.07,25.23c3.07-.56,3.9-2.32,3.9-3.81,0-.9-.43-1.52-1.15-1.52-.99,0-2.26,1.08-2.76,5.33Z"/><path class="cls-2" d="M457.26,29.16c-.12.16-.4.46-.4.81,0,.53.81.93,2.67,1.89,2.88,1.49,4.06,2.63,4.06,3.97,0,2.91-4.62,5.05-7.84,5.05s-5.58-1.49-5.58-3.35c0-1.58,2.23-2.82,5.14-4.28-.71-.43-1.21-1.05-1.18-1.58.03-.65,1.05-1.58,2.51-2.51h.62ZM460.79,37.62c0-.81-.59-1.43-1.39-2.05-.96-.71-2.39-1.33-3.63-1.98-1.67.99-2.57,2.08-2.57,3.35,0,1.92,2.33,2.88,4.15,2.88,2.32,0,3.44-.99,3.44-2.2ZM453.76,25.75c0-2.29,1.24-4.52,3.29-5.83,1.02-.62,2.29-1.02,3.5-1.02,1.02,0,1.92.28,2.7.81,1.8.06,2.76-.34,3.22-.68l.22.31c-1.08,1.52-2.29,1.64-2.82,1.7.12.37.19.87.19,1.43,0,2.48-1.3,4.15-2.39,5.05-1.33,1.12-3.32,1.77-4.49,1.77-2.17,0-3.41-1.43-3.41-3.53ZM460.98,21.79c0-1.46-.34-2.17-1.24-2.17-1.74,0-2.82,3.78-2.82,6.76,0,1.3.34,2.17,1.3,2.17,1.43,0,2.76-3.04,2.76-6.76Z"/><path class="cls-2" d="M485,29.53c-1.77,2.29-3.56,3.22-4.59,3.22-.9,0-1.27-.77-.77-3.5l.25-1.39c-.96,1.55-1.89,2.48-2.88,3.38-1.12.99-2.04,1.52-3.07,1.52-1.27,0-2.01-1.49-2.01-3.53,0-2.85,1.33-5.92,3.29-7.72,1.27-1.18,3.66-2.6,6.07-2.6,1.33,0,2.97.4,3.56.53-.68,2.54-1.39,6.26-2.08,9.82-.16.81-.06,1.12.25,1.12.25,0,.77-.25,1.74-1.24l.25.4ZM479.08,28.02c.81-1.15,1.02-1.98,1.3-3.01.37-1.36.84-3.69.96-4.59-.46-.25-1.05-.43-2.11-.43-2.57,0-3.81,5.49-3.81,8.58,0,1.39.4,1.86.87,1.86.71,0,1.52-.56,2.79-2.42Z"/><path class="cls-2" d="M506.6,29.66c-1.74,2.17-3.47,3.1-4.68,3.1-.99,0-1.36-.68-.84-2.94.5-2.26,1.02-4.46,1.55-6.73.34-1.55.22-2.11-.37-2.11-1.15,0-2.98,2.17-3.87,3.78-.74,1.27-.84,2.05-1.08,2.94-.34,1.46-.71,3.19-.93,4.4-.99.09-2.32.37-3.19.62l-.16-.19c.56-2.6,1.49-6.45,2.26-9.92.22-.99.25-1.36-.12-1.36-.43,0-1.21.62-1.77,1.21l-.28-.43c1.43-1.86,3.38-3.13,4.56-3.13s1.27.99.74,3.63l-.37,1.61c1.83-2.94,4.62-5.24,6.6-5.24,1.08,0,1.92.46,1.08,4.34-.46,2.01-.9,3.97-1.33,6.01-.22.87-.12,1.15.16,1.15.22,0,.87-.22,1.8-1.21l.25.46Z"/><path class="cls-2" d="M523.16,20.14c-.96.03-1.77.03-2.73.06-.65,3.19-1.67,8.15-1.74,8.46-.22,1.33-.16,1.89.28,1.89.65,0,1.39-.59,2.36-1.58l.25.34c-1.12,1.52-3.13,3.44-4.96,3.44-1.27,0-1.83-1.05-1.05-4.68l1.64-7.87h-2.2l-.06-.16.68-.77h1.77l.68-3.19c.99-.4,2.45-1.15,3.5-1.89l.25.12c-.4,1.3-.84,3.32-1.21,4.96h3.01l-.46.87Z"/><path class="cls-2" d="M556.23,27.49c-.34,1.12-1.42,3.97-1.86,4.9h-14.35l.12-.5c2.23-.25,2.48-.5,3.07-3.47l2.48-12.83c.46-2.36.22-2.57-2.17-2.85l.09-.5h8.93l-.09.5c-2.42.25-2.63.53-3.16,3.35l-2.36,12.43c-.43,2.29-.37,3.01,1.46,3.01h1.49c1.8,0,2.6-.12,3.47-.84.84-.68,1.77-1.98,2.45-3.35l.43.15Z"/><path class="cls-2" d="M569.74,29.53c-1.77,2.29-3.69,3.22-4.74,3.22-.99,0-1.3-.96-.74-3.22.65-2.73,1.08-4.46,1.64-6.91.22-.99.22-1.39-.16-1.39-.43,0-1.18.65-1.74,1.24l-.28-.43c1.43-1.67,3.69-3.13,4.87-3.13,1.08,0,1.12.99.53,3.69-.53,2.23-1.05,4.46-1.58,6.66-.22.87-.06,1.15.22,1.15.22,0,.81-.28,1.74-1.27l.25.4ZM570.46,14.1c0,1.05-.68,2.05-1.74,2.05-.87,0-1.42-.59-1.42-1.58,0-.9.62-2.01,1.83-2.01.9,0,1.33.74,1.33,1.55Z"/><path class="cls-2" d="M580.84,19.28c.5-2.67,1.67-5.05,3.07-6.48,1.52-1.58,3.29-2.51,4.8-2.51,1.24,0,2.14.56,2.14,1.27s-.9,1.7-1.36,1.89c-.28.12-.43.12-.62-.12-.74-1.05-1.61-1.77-2.23-1.77-.68,0-1.39.65-2.48,7.72h2.85l-.43.84c-.93.06-1.61.09-2.57.09-.46,2.39-.96,5.7-1.61,9.27-1.21,6.32-2.6,7.44-4.77,9.39-1.3,1.15-2.57,1.61-3.41,1.61-1.08,0-1.95-.56-1.95-1.33s.56-1.58,1.15-1.92c.22-.12.4-.19.59,0,1.02,1.02,1.8,1.55,2.42,1.55,1.33,0,1.46-2.32,2.39-7.65.68-3.94,1.21-7.19,1.89-10.91h-2.23l-.06-.16.56-.77h1.89Z"/><path class="cls-2" d="M596,32.76c-1.61,0-3.44-.9-3.44-4.34,0-2.94,1.24-5.89,3.32-7.65,1.27-1.08,3.1-1.86,4.52-1.86,1.77,0,2.45,1.12,2.45,2.32,0,2.7-4.25,4.06-6.88,4.71-.06.56-.06.93-.06,1.12,0,1.98.56,3.66,2.29,3.66,1.15,0,2.42-.56,3.81-2.01l.25.4c-2.36,2.88-4.71,3.66-6.26,3.66ZM596.06,25.23c3.07-.56,3.9-2.32,3.9-3.81,0-.9-.43-1.52-1.15-1.52-.99,0-2.26,1.08-2.76,5.33Z"/><line class="cls-1" x1="258.3" y1="15.39" x2="258.3" y2="28.56"/><line class="cls-1" x1="633.21" y1="15.39" x2="633.21" y2="28.56"/></g></svg>